<svg version="1.1" xmlns="http://www.w3.org/2000/svg" viewBox="-157.000001 -221.80271394297614 314.000002 468.41676701369283" fill="none" stroke="black" stroke-width="0.6%" vector-effect="non-scaling-stroke">
    <path d="M -67.17514 -201.33673 A 95 66.46101 360 0 1 95 -154.34171 A 95 66.46101 360 0 1 -95 -154.34171 A 95 66.46101 360 0 1 -67.17514 -201.33673 Z" />
    <path d="M -95 -92.1763 A 95 66.46101 180 0 0 95 -92.1763" />
    <path d="M -110.30866 -169.34708 A 156 109.13597 360 0 1 -85.34766 -183.53042" />
    <path d="M 85.34766 -183.53042 A 156 109.13597 360 0 1 156 -92.1763 L 156 136.47808" />
    <path d="M 156 -92.1763 A 156 109.13597 360 0 1 -156 -92.1763 L -156 136.47808 A 156 109.13597 180 0 0 156 136.47808" />
    <path d="M -156 -92.1763 A 156 109.13597 360 0 1 -110.30866 -169.34708" />
    <path d="M -95 -154.34171 L -95 -92.1763" />
    <path d="M 95 -154.34171 L 95 -92.1763" />
</svg>