<svg version="1.1" xmlns="http://www.w3.org/2000/svg" viewBox="-157.000001 -221.80271394297614 314.000002 464.8440423424864" fill="none" stroke="black" stroke-width="0.6%" vector-effect="non-scaling-stroke">
    <path d="M -67.17514 -201.33673 A 95 66.46101 360 0 1 95 -154.34171 A 95 66.46101 360 0 1 -95 -154.34171 A 95 66.46101 360 0 1 -67.17514 -201.33673 Z" />
    <path d="M -95 -95.74902 A 95 66.46101 180 0 0 95 -95.74902" />
    <path d="M -110.30866 -172.91981 A 156 109.13597 360 0 1 -81.06696 -188.99187" />
    <path d="M 81.06696 -188.99187 A 156 109.13597 360 0 1 156 -95.74902 L 156 132.90536" />
    <path d="M 156 -95.74902 A 156 109.13597 360 0 1 -156 -95.74902 L -156 132.90536 A 156 109.13597 180 0 0 156 132.90536" />
    <path d="M -156 -95.74902 A 156 109.13597 360 0 1 -110.30866 -172.91981" />
    <path d="M -95 -154.34171 L -95 -95.74902" />
    <path d="M 95 -154.34171 L 95 -95.74902" />
</svg>